<svg id="Layer_1" data-name="Layer 1" xmlns="http://www.w3.org/2000/svg" viewBox="0 0 1000 1000"><defs><style>.cls-1{fill:#f7875c;}.cls-2{fill:#f5b39b;}.cls-3{fill:#f7786e;}.cls-4{fill:#f4bd9b;}.cls-5{fill:#f93c59;}</style></defs><path class="cls-1" d="M702.62,90.53c77,54.44,127.19,127.14,148.24,219.39,22.07,96.73-.9,184.92-49.24,269.23-38.57,67.25-81.69,131.37-128.07,193.2-48,64-96.66,127.78-150.51,187.21-6.25,6.89-12.13,14.28-23,12.87l.06-382.28c12.18-7.92,20.93-19.52,31.44-29.22,40.67-37.55,77.81-78.61,116.79-117.83,45.92-46.2,48.42-123-6.71-161.82,5.14-19.64,22.18-30.62,34.79-43.85C708.31,204,717,143,693.38,104.48,686.48,93.23,691.37,89.75,702.62,90.53Z"/><path class="cls-2" d="M216.1,608.92c-70.37-108.46-99.58-223-52.28-349.21,25.61-68.34,67.93-124,127.49-165.73C324.71,70.61,360.53,51,401,42c-78.51,59.1-80,167.4-50.8,240.62-6.56,7.84-13.85,15.18-19.55,23.6-27.59,40.8-21.42,93.79,16.08,132,40.14,40.92,81.09,81.05,121.69,121.52-8.71.69-16-2-22-8.57-20.75-22.74-48.56-18.85-72.43-12.79-27.32,6.93-54.18,16.87-81.55,24.71a70.69,70.69,0,0,0-42.27,34.28c-5.25,9.64-9,14.94-20.36,12C225.54,608.19,220.7,609,216.1,608.92Z"/><path class="cls-3" d="M350.23,282.57C321,209.35,322.52,101.05,401,42c53.4-17,107.83-18.43,162.55-9.1,50.56,8.62,97.36,27.18,139,57.68-11.26-.78-16.15,2.7-9.25,14,23.65,38.5,14.93,99.51-17,133-12.61,13.23-29.65,24.21-34.79,43.85-47.61-30.52-86-19.76-127.94,20.81-14.8,14.33-13.6,15.16-29.07.41-17.22-16.41-36.35-29.64-59.78-36.19C396.88,258.49,373.92,271.75,350.23,282.57Z"/><path class="cls-4" d="M216.1,608.92c4.6.08,9.44-.73,13.76.4,11.32,3,15.11-2.34,20.36-12a70.69,70.69,0,0,1,42.27-34.28c27.37-7.84,54.23-17.78,81.55-24.71,23.87-6.06,51.68-10,72.43,12.79,6,6.53,13.27,9.26,22,8.57l6.64,6.62,3.87,5.39-.42-.41,5.55,3.83c6.71,3.55,11.07,9.6,16,15l-.06,382.28c-11.74,2.49-17.92-6-24.45-13-53.25-57.2-100.5-119.26-147-181.93-39.13-52.72-77.2-106.1-110-163A51.24,51.24,0,0,1,216.1,608.92Z"/><path class="cls-5" d="M500.12,590.15c-5-5.41-9.32-11.46-16-15a6.37,6.37,0,0,0-5.56-3.83l.41.4a6.18,6.18,0,0,0-3.86-5.38l-6.64-6.62c-40.6-40.47-81.55-80.6-121.69-121.52-37.5-38.23-43.67-91.22-16.08-132,5.7-8.42,13-15.76,19.55-23.6,23.69-10.82,46.65-24.08,74.62-16.26,23.43,6.55,42.56,19.78,59.78,36.19,15.47,14.75,14.27,13.92,29.07-.41,41.92-40.57,80.33-51.33,127.94-20.81,55.13,38.85,52.63,115.62,6.71,161.82-39,39.22-76.12,80.28-116.79,117.83C521.05,570.63,512.3,582.23,500.12,590.15Z"/><path class="cls-2" d="M475.09,566.33a6.18,6.18,0,0,1,3.86,5.38Z"/><path class="cls-2" d="M478.54,571.31a6.37,6.37,0,0,1,5.56,3.83Z"/></svg>